<svg xmlns="http://www.w3.org/2000/svg" width="20" height="20" viewBox="0 0 20 20" fill="none"><path d="M10 1.25C10.3452 1.25 10.625 1.52982 10.625 1.875V3.75C10.625 4.09518 10.3452 4.375 10 4.375C9.65482 4.375 9.375 4.09518 9.375 3.75V1.875C9.375 1.52982 9.65482 1.25 10 1.25Z" fill="#ACA3FF"></path><path fill-rule="evenodd" clip-rule="evenodd" d="M6.25 10C6.25 7.92893 7.92893 6.25 10 6.25C12.0711 6.25 13.75 7.92893 13.75 10C13.75 12.0711 12.0711 13.75 10 13.75C7.92893 13.75 6.25 12.0711 6.25 10Z" fill="#ACA3FF"></path><path d="M10.625 16.25C10.625 15.9048 10.3452 15.625 10 15.625C9.65482 15.625 9.375 15.9048 9.375 16.25V18.125C9.375 18.4702 9.65482 18.75 10 18.75C10.3452 18.75 10.625 18.4702 10.625 18.125V16.25Z" fill="#ACA3FF"></path><path d="M3.81282 3.81282C4.0569 3.56874 4.45262 3.56874 4.6967 3.81282L6.02253 5.13864C6.2666 5.38272 6.2666 5.77845 6.02253 6.02253C5.77845 6.26661 5.38272 6.26661 5.13864 6.02253L3.81282 4.6967C3.56874 4.45262 3.56874 4.0569 3.81282 3.81282Z" fill="#ACA3FF"></path><path d="M14.8614 13.9775C14.6173 13.7334 14.2216 13.7334 13.9775 13.9775C13.7334 14.2216 13.7334 14.6173 13.9775 14.8614L15.3033 16.1872C15.5474 16.4313 15.9431 16.4313 16.1872 16.1872C16.4313 15.9431 16.4313 15.5474 16.1872 15.3033L14.8614 13.9775Z" fill="#ACA3FF"></path><path d="M16.1872 3.81282C15.9431 3.56874 15.5474 3.56874 15.3033 3.81282L13.9775 5.13864C13.7334 5.38272 13.7334 5.77845 13.9775 6.02253C14.2216 6.26661 14.6173 6.26661 14.8614 6.02253L16.1872 4.6967C16.4313 4.45262 16.4313 4.0569 16.1872 3.81282Z" fill="#ACA3FF"></path><path d="M5.13864 13.9775C5.38271 13.7334 5.77844 13.7334 6.02252 13.9775C6.2666 14.2216 6.2666 14.6173 6.02252 14.8614L4.6967 16.1872C4.45262 16.4313 4.05689 16.4313 3.81281 16.1872C3.56873 15.9431 3.56873 15.5474 3.81281 15.3033L5.13864 13.9775Z" fill="#ACA3FF"></path><path d="M1.25 10C1.25 9.65482 1.52982 9.375 1.875 9.375H3.75C4.09518 9.375 4.375 9.65482 4.375 10C4.375 10.3452 4.09518 10.625 3.75 10.625H1.875C1.52982 10.625 1.25 10.3452 1.25 10Z" fill="#ACA3FF"></path><path d="M16.25 9.375C15.9048 9.375 15.625 9.65482 15.625 10C15.625 10.3452 15.9048 10.625 16.25 10.625H18.125C18.4702 10.625 18.75 10.3452 18.75 10C18.75 9.65482 18.4702 9.375 18.125 9.375H16.25Z" fill="#ACA3FF"></path></svg>