<svg xmlns="http://www.w3.org/2000/svg" width="20" height="20" viewBox="0 0 20 20" fill="none"><path fill-rule="evenodd" clip-rule="evenodd" d="M7.98461 2.12252C8.15244 2.34396 8.15394 2.64961 7.98828 2.87268C7.18117 3.95948 6.70389 5.30478 6.70389 6.76337C6.70389 10.3713 9.62872 13.2962 13.2367 13.2962C14.6953 13.2962 16.0406 12.8189 17.1274 12.0118C17.3504 11.8461 17.6561 11.8476 17.8775 12.0154C18.099 12.1833 18.183 12.4771 18.0838 12.7367C16.8799 15.8864 13.8293 18.125 10.2543 18.125C5.62652 18.125 1.875 14.3735 1.875 9.74578C1.875 6.17073 4.11362 3.12011 7.26337 1.91623C7.52291 1.81703 7.81678 1.90109 7.98461 2.12252ZM5.93017 4.07692C4.22465 5.37992 3.125 7.43488 3.125 9.74578C3.125 13.6832 6.31688 16.875 10.2543 16.875C12.5652 16.875 14.6201 15.7754 15.9231 14.0699C15.0856 14.3779 14.1805 14.5462 13.2367 14.5462C8.93836 14.5462 5.45389 11.0617 5.45389 6.76337C5.45389 5.81955 5.62211 4.91449 5.93017 4.07692Z" fill="#ACA3FF"></path></svg>