<svg width="17" height="16" viewBox="0 0 17 16" fill="none" xmlns="http://www.w3.org/2000/svg"><path fill-rule="evenodd" clip-rule="evenodd" d="M5 13.5C5 13.2239 5.22386 13 5.5 13H11.5C11.7761 13 12 13.2239 12 13.5C12 13.7761 11.7761 14 11.5 14H5.5C5.22386 14 5 13.7761 5 13.5Z" fill="#713DFF"></path><path fill-rule="evenodd" clip-rule="evenodd" d="M5.97812 2H11.0219C11.7034 2 12.2454 1.99999 12.6827 2.03572C13.1305 2.07231 13.5123 2.14884 13.862 2.32698C14.4265 2.6146 14.8854 3.07354 15.173 3.63803C15.3512 3.98765 15.4277 4.36949 15.4643 4.81729C15.5 5.25458 15.5 5.79659 15.5 6.47811V7.52189C15.5 8.20341 15.5 8.74542 15.4643 9.18271C15.4277 9.63051 15.3512 10.0123 15.173 10.362C14.8854 10.9265 14.4265 11.3854 13.862 11.673C13.5123 11.8512 13.1305 11.9277 12.6827 11.9643C12.2454 12 11.7034 12 11.0219 12H5.97811C5.29659 12 4.75458 12 4.31729 11.9643C3.86949 11.9277 3.48765 11.8512 3.13803 11.673C2.57354 11.3854 2.1146 10.9265 1.82698 10.362C1.64884 10.0123 1.57231 9.63051 1.53572 9.18271C1.49999 8.74542 1.5 8.2034 1.5 7.52188V6.47812C1.5 5.7966 1.49999 5.25458 1.53572 4.81729C1.57231 4.36949 1.64884 3.98765 1.82698 3.63803C2.1146 3.07354 2.57354 2.6146 3.13803 2.32698C3.48765 2.14884 3.86949 2.07231 4.31729 2.03572C4.75458 1.99999 5.2966 2 5.97812 2ZM4.39872 3.0324C4.01276 3.06393 3.77717 3.12365 3.59202 3.21799C3.21569 3.40973 2.90973 3.71569 2.71799 4.09202C2.62365 4.27717 2.56393 4.51276 2.5324 4.89872C2.50039 5.29052 2.5 5.79168 2.5 6.5V7.5C2.5 8.20832 2.50039 8.70948 2.5324 9.10128C2.56393 9.48724 2.62365 9.72283 2.71799 9.90798C2.90973 10.2843 3.21569 10.5903 3.59202 10.782C3.77717 10.8764 4.01276 10.9361 4.39872 10.9676C4.79052 10.9996 5.29168 11 6 11H11C11.7083 11 12.2095 10.9996 12.6013 10.9676C12.9872 10.9361 13.2228 10.8764 13.408 10.782C13.7843 10.5903 14.0903 10.2843 14.282 9.90798C14.3764 9.72283 14.4361 9.48724 14.4676 9.10128C14.4996 8.70948 14.5 8.20832 14.5 7.5V6.5C14.5 5.79168 14.4996 5.29052 14.4676 4.89872C14.4361 4.51276 14.3764 4.27717 14.282 4.09202C14.0903 3.71569 13.7843 3.40973 13.408 3.21799C13.2228 3.12365 12.9872 3.06393 12.6013 3.0324C12.2095 3.00039 11.7083 3 11 3H6C5.29168 3 4.79052 3.00039 4.39872 3.0324Z" fill="#713DFF"></path></svg>