<svg width="412" height="412" viewBox="0 0 412 412" fill="none" xmlns="http://www.w3.org/2000/svg">
<mask id="mask0_6208_2543" style="mask-type:alpha" maskUnits="userSpaceOnUse" x="0" y="0" width="412" height="412">
<circle cx="206" cy="206" r="206" fill="url(#paint0_radial_6208_2543)"/>
</mask>
<g mask="url(#mask0_6208_2543)">
<g opacity="0.5" filter="url(#filter0_b_6208_2543)">
<path d="M39.3871 238.547L19 259.822V323.5C19 325.709 20.7909 327.5 23 327.5H380.5C382.709 327.5 384.5 325.709 384.5 323.5V140L359.863 164.172C358.731 165.283 357.049 165.62 355.576 165.031L341.612 159.445C339.415 158.566 336.906 159.06 335.207 160.707L317.239 178.126C315.068 180.231 311.67 180.391 309.31 178.5L306.838 176.519C304.757 174.851 301.825 174.757 299.641 176.288L285.71 186.057C284.078 187.202 281.984 187.461 280.122 186.749L270.634 183.12C268.531 182.315 266.154 182.756 264.479 184.262L248.862 198.303C246.505 200.422 242.908 200.343 240.647 198.123L235.214 192.79C232.59 190.213 228.285 190.583 226.139 193.569L215.471 208.412C213.556 211.077 209.857 211.709 207.166 209.831L188.837 197.044C186.037 195.09 182.173 195.864 180.341 198.745L167.543 218.872C165.663 221.829 161.659 222.553 158.863 220.44L152.234 215.43C149.531 213.388 145.674 213.987 143.718 216.753L142.261 218.812C140.177 221.759 135.982 222.212 133.317 219.778L129.307 216.117C126.705 213.742 122.627 214.108 120.491 216.908L98.8771 245.235C96.6706 248.127 92.419 248.406 89.8535 245.827L77.3078 233.217C74.9541 230.851 71.1223 230.861 68.7802 233.238L60.4495 241.693C58.2547 243.921 54.7168 244.09 52.3204 242.08L47.5742 238.101C45.1532 236.071 41.5729 236.266 39.3871 238.547Z" fill="url(#paint1_linear_6208_2543)" fill-opacity="0.32"/>
<path d="M19 260L39.3838 238.691C41.5705 236.405 45.1563 236.21 47.5785 238.244L52.3161 242.224C54.7138 244.238 58.2571 244.069 60.4528 241.836L68.7765 233.373C71.1195 230.991 74.957 230.982 77.3115 233.352L89.8493 245.977C92.4155 248.561 96.6731 248.281 98.8797 245.384L120.488 217.014C122.625 214.209 126.709 213.842 129.311 216.222L133.312 219.882C135.978 222.321 140.179 221.867 142.263 218.916L143.716 216.858C145.672 214.087 149.535 213.488 152.239 215.535L158.857 220.545C161.655 222.662 165.664 221.938 167.544 218.976L180.34 198.818C182.171 195.932 186.041 195.158 188.842 197.116L207.161 209.918C209.853 211.8 213.558 211.167 215.473 208.498L226.136 193.635C228.283 190.643 232.593 190.273 235.219 192.855L240.643 198.189C242.905 200.414 246.508 200.493 248.866 198.37L264.477 184.31C266.153 182.801 268.533 182.359 270.639 183.166L280.117 186.798C281.982 187.512 284.079 187.252 285.713 186.104L299.637 176.323C301.822 174.788 304.759 174.882 306.842 176.554L309.306 178.532C311.667 180.428 315.07 180.267 317.242 178.158L335.233 160.688C336.918 159.05 339.405 158.548 341.594 159.402L354.848 164.575C357.067 165.441 359.588 164.912 361.272 163.228L384.5 140" stroke="#8566FF"/>
</g>
</g>
<defs>
<filter id="filter0_b_6208_2543" x="10.6387" y="131.646" width="382.215" height="203.854" filterUnits="userSpaceOnUse" color-interpolation-filters="sRGB">
<feFlood flood-opacity="0" result="BackgroundImageFix"/>
<feGaussianBlur in="BackgroundImageFix" stdDeviation="4"/>
<feComposite in2="SourceAlpha" operator="in" result="effect1_backgroundBlur_6208_2543"/>
<feBlend mode="normal" in="SourceGraphic" in2="effect1_backgroundBlur_6208_2543" result="shape"/>
</filter>
<radialGradient id="paint0_radial_6208_2543" cx="0" cy="0" r="1" gradientUnits="userSpaceOnUse" gradientTransform="translate(206 206) scale(177)">
<stop stop-color="white"/>
<stop offset="0.705896" stop-color="white" stop-opacity="0.203125"/>
<stop offset="1" stop-color="white" stop-opacity="0"/>
</radialGradient>
<linearGradient id="paint1_linear_6208_2543" x1="178.5" y1="158" x2="178.5" y2="315" gradientUnits="userSpaceOnUse">
<stop stop-color="#713DFF"/>
<stop offset="1" stop-color="#713DFF" stop-opacity="0"/>
</linearGradient>
</defs>
</svg>
