<svg width="17" height="16" viewBox="0 0 17 16" fill="none" xmlns="http://www.w3.org/2000/svg"><path fill-rule="evenodd" clip-rule="evenodd" d="M7 3.5C7 3.22386 7.22386 3 7.5 3H9.5C9.77614 3 10 3.22386 10 3.5C10 3.77614 9.77614 4 9.5 4H7.5C7.22386 4 7 3.77614 7 3.5Z" fill="#FAAF46"></path><path fill-rule="evenodd" clip-rule="evenodd" d="M8.47812 1.5H8.52188C9.2034 1.5 9.74542 1.49999 10.1827 1.53572C10.6305 1.57231 11.0123 1.64884 11.362 1.82698C11.9265 2.1146 12.3854 2.57354 12.673 3.13803C12.8512 3.48765 12.9277 3.86949 12.9643 4.31729C13 4.75458 13 5.29659 13 5.97811V10.0219C13 10.7034 13 11.2454 12.9643 11.6827C12.9277 12.1305 12.8512 12.5123 12.673 12.862C12.3854 13.4265 11.9265 13.8854 11.362 14.173C11.0123 14.3512 10.6305 14.4277 10.1827 14.4643C9.74542 14.5 9.20341 14.5 8.52189 14.5H8.47811C7.79659 14.5 7.25458 14.5 6.81729 14.4643C6.36949 14.4277 5.98765 14.3512 5.63803 14.173C5.07354 13.8854 4.6146 13.4265 4.32698 12.862C4.14884 12.5123 4.07231 12.1305 4.03572 11.6827C3.99999 11.2454 4 10.7034 4 10.0219V5.97812C4 5.2966 3.99999 4.75458 4.03572 4.31729C4.07231 3.86949 4.14884 3.48765 4.32698 3.13803C4.6146 2.57354 5.07354 2.1146 5.63803 1.82698C5.98765 1.64884 6.36949 1.57231 6.81729 1.53572C7.25458 1.49999 7.7966 1.5 8.47812 1.5ZM6.89872 2.5324C6.51276 2.56393 6.27717 2.62365 6.09202 2.71799C5.71569 2.90973 5.40973 3.21569 5.21799 3.59202C5.12365 3.77717 5.06393 4.01276 5.0324 4.39872C5.00039 4.79052 5 5.29168 5 6V10C5 10.7083 5.00039 11.2095 5.0324 11.6013C5.06393 11.9872 5.12365 12.2228 5.21799 12.408C5.40973 12.7843 5.71569 13.0903 6.09202 13.282C6.27717 13.3764 6.51276 13.4361 6.89872 13.4676C7.29052 13.4996 7.79168 13.5 8.5 13.5C9.20832 13.5 9.70948 13.4996 10.1013 13.4676C10.4872 13.4361 10.7228 13.3764 10.908 13.282C11.2843 13.0903 11.5903 12.7843 11.782 12.408C11.8764 12.2228 11.9361 11.9872 11.9676 11.6013C11.9996 11.2095 12 10.7083 12 10V6C12 5.29168 11.9996 4.79052 11.9676 4.39872C11.9361 4.01276 11.8764 3.77717 11.782 3.59202C11.5903 3.21569 11.2843 2.90973 10.908 2.71799C10.7228 2.62365 10.4872 2.56393 10.1013 2.5324C9.70948 2.50039 9.20832 2.5 8.5 2.5C7.79168 2.5 7.29052 2.50039 6.89872 2.5324Z" fill="#FAAF46"></path></svg>