<svg width="31" height="32" viewBox="0 0 31 32" fill="none" xmlns="http://www.w3.org/2000/svg">
<g id="PaypalLogo" filter="url(#filter0_d_7187_77470)">
<path id="Vector" d="M25.0754 11.2309C24.4881 10.4762 23.7317 9.86999 22.8671 9.46125C22.7929 7.88869 22.116 6.40508 20.9769 5.31835C19.8378 4.23162 18.3241 3.62522 16.7497 3.625H10.1872C9.79699 3.62506 9.41797 3.75555 9.1104 3.99574C8.80283 4.23593 8.58437 4.57203 8.48974 4.95062L4.55224 20.7006C4.48775 20.9586 4.4829 21.2279 4.53807 21.488C4.59323 21.7481 4.70694 21.9923 4.87058 22.2019C5.03421 22.4115 5.24347 22.5811 5.48244 22.6977C5.72141 22.8143 5.98382 22.875 6.24974 22.875H9.25755L8.92942 24.2006C8.86498 24.4584 8.8601 24.7275 8.91514 24.9875C8.97018 25.2474 9.0837 25.4915 9.24709 25.701C9.41048 25.9106 9.61945 26.0802 9.85815 26.197C10.0968 26.3137 10.359 26.3746 10.6247 26.375H14.07C14.4599 26.3745 14.8384 26.2437 15.1456 26.0036C15.4527 25.7634 15.6708 25.4276 15.7654 25.0494L16.7497 21.125H20.2497C21.3973 21.125 22.5217 20.8026 23.4949 20.1945C24.4681 19.5865 25.2509 18.7173 25.7542 17.686C26.2574 16.6547 26.4608 15.5028 26.3412 14.3615C26.2215 13.2202 25.7837 12.1355 25.0775 11.2309H25.0754ZM6.24974 21.125L10.1872 5.375H16.7497C17.7677 5.37471 18.754 5.72944 19.5386 6.37809C20.3232 7.02673 20.857 7.92869 21.0482 8.92859C20.7834 8.89365 20.5168 8.87575 20.2497 8.875H14.1247C13.7343 8.87481 13.355 9.0052 13.0472 9.2454C12.7394 9.48561 12.5208 9.82185 12.4261 10.2006L9.69723 21.125H6.24974ZM21.0154 10.6928C21.0066 10.7322 20.999 10.7716 20.9891 10.8109C20.7537 11.7573 20.2085 12.5976 19.4403 13.1982C18.672 13.7988 17.7249 14.125 16.7497 14.125H13.2497L14.1247 10.625H20.2497C20.5064 10.6251 20.7626 10.6478 21.0154 10.6928ZM24.4891 16.0609C24.2537 17.0073 23.7085 17.8476 22.9403 18.4482C22.172 19.0488 21.2249 19.375 20.2497 19.375H16.7497C16.3595 19.3751 15.9805 19.5056 15.6729 19.7457C15.3653 19.9859 15.1469 20.322 15.0522 20.7006L14.0679 24.625H10.6247L12.8122 15.875H16.7497C18.0951 15.8754 19.4031 15.432 20.4709 14.6135C21.5387 13.7951 22.3068 12.6473 22.656 11.348C23.051 11.6097 23.4012 11.9337 23.6929 12.3072C24.1045 12.83 24.3905 13.4403 24.5289 14.0911C24.6674 14.742 24.6545 15.4159 24.4913 16.0609H24.4891Z" fill="#BAB3FF"/>
</g>
<defs>
<filter id="filter0_d_7187_77470" x="-3" y="-2" width="36" height="36" filterUnits="userSpaceOnUse" color-interpolation-filters="sRGB">
<feFlood flood-opacity="0" result="BackgroundImageFix"/>
<feColorMatrix in="SourceAlpha" type="matrix" values="0 0 0 0 0 0 0 0 0 0 0 0 0 0 0 0 0 0 127 0" result="hardAlpha"/>
<feOffset dy="1"/>
<feGaussianBlur stdDeviation="2"/>
<feComposite in2="hardAlpha" operator="out"/>
<feColorMatrix type="matrix" values="0 0 0 0 0.73 0 0 0 0 0.7 0 0 0 0 1 0 0 0 0.24 0"/>
<feBlend mode="normal" in2="BackgroundImageFix" result="effect1_dropShadow_7187_77470"/>
<feBlend mode="normal" in="SourceGraphic" in2="effect1_dropShadow_7187_77470" result="shape"/>
</filter>
</defs>
</svg>
