<svg width="36" height="30" viewBox="0 0 36 30" fill="none" xmlns="http://www.w3.org/2000/svg">
<g id="Bank" filter="url(#filter0_d_7187_77481)">
<path id="Vector" d="M6.625 12.3749H9.25V19.3749H7.5C7.26794 19.3749 7.04538 19.4671 6.88128 19.6312C6.71719 19.7953 6.625 20.0179 6.625 20.2499C6.625 20.482 6.71719 20.7046 6.88128 20.8687C7.04538 21.0328 7.26794 21.1249 7.5 21.1249H28.5C28.7321 21.1249 28.9546 21.0328 29.1187 20.8687C29.2828 20.7046 29.375 20.482 29.375 20.2499C29.375 20.0179 29.2828 19.7953 29.1187 19.6312C28.9546 19.4671 28.7321 19.3749 28.5 19.3749H26.75V12.3749H29.375C29.5654 12.3748 29.7505 12.3125 29.9023 12.1976C30.0541 12.0826 30.1642 11.9213 30.2161 11.7381C30.2679 11.555 30.2586 11.3599 30.1895 11.1824C30.1204 11.005 29.9953 10.855 29.8333 10.7551L18.4583 3.7551C18.3204 3.67035 18.1618 3.62549 18 3.62549C17.8382 3.62549 17.6796 3.67035 17.5417 3.7551L6.16672 10.7551C6.00466 10.855 5.8796 11.005 5.81052 11.1824C5.74144 11.3599 5.7321 11.555 5.78393 11.7381C5.83576 11.9213 5.94592 12.0826 6.09771 12.1976C6.24949 12.3125 6.43462 12.3748 6.625 12.3749ZM11 12.3749H14.5V19.3749H11V12.3749ZM19.75 12.3749V19.3749H16.25V12.3749H19.75ZM25 19.3749H21.5V12.3749H25V19.3749ZM18 5.52698L26.2841 10.6249H9.71594L18 5.52698ZM31.125 23.7499C31.125 23.982 31.0328 24.2046 30.8687 24.3687C30.7046 24.5328 30.4821 24.6249 30.25 24.6249H5.75C5.51794 24.6249 5.29538 24.5328 5.13128 24.3687C4.96719 24.2046 4.875 23.982 4.875 23.7499C4.875 23.5179 4.96719 23.2953 5.13128 23.1312C5.29538 22.9671 5.51794 22.8749 5.75 22.8749H30.25C30.4821 22.8749 30.7046 22.9671 30.8687 23.1312C31.0328 23.2953 31.125 23.5179 31.125 23.7499Z" fill="#BAB3FF"/>
</g>
<defs>
<filter id="filter0_d_7187_77481" x="0" y="-2" width="36" height="36" filterUnits="userSpaceOnUse" color-interpolation-filters="sRGB">
<feFlood flood-opacity="0" result="BackgroundImageFix"/>
<feColorMatrix in="SourceAlpha" type="matrix" values="0 0 0 0 0 0 0 0 0 0 0 0 0 0 0 0 0 0 127 0" result="hardAlpha"/>
<feOffset dy="1"/>
<feGaussianBlur stdDeviation="2"/>
<feComposite in2="hardAlpha" operator="out"/>
<feColorMatrix type="matrix" values="0 0 0 0 0.73 0 0 0 0 0.7 0 0 0 0 1 0 0 0 0.24 0"/>
<feBlend mode="normal" in2="BackgroundImageFix" result="effect1_dropShadow_7187_77481"/>
<feBlend mode="normal" in="SourceGraphic" in2="effect1_dropShadow_7187_77481" result="shape"/>
</filter>
</defs>
</svg>
