<svg width="36" height="28" viewBox="0 0 36 28" fill="none" xmlns="http://www.w3.org/2000/svg">
<g id="Money" filter="url(#filter0_d_7187_77474)">
<path id="Vector" d="M18 9.625C17.1347 9.625 16.2888 9.88159 15.5694 10.3623C14.8499 10.8431 14.2892 11.5263 13.958 12.3258C13.6269 13.1252 13.5403 14.0049 13.7091 14.8535C13.8779 15.7022 14.2946 16.4817 14.9064 17.0936C15.5183 17.7054 16.2978 18.1221 17.1465 18.2909C17.9951 18.4597 18.8748 18.3731 19.6742 18.042C20.4737 17.7108 21.1569 17.1501 21.6377 16.4306C22.1184 15.7112 22.375 14.8653 22.375 14C22.375 12.8397 21.9141 11.7269 21.0936 10.9064C20.2731 10.0859 19.1603 9.625 18 9.625ZM18 16.625C17.4808 16.625 16.9733 16.471 16.5416 16.1826C16.1099 15.8942 15.7735 15.4842 15.5748 15.0045C15.3761 14.5249 15.3242 13.9971 15.4254 13.4879C15.5267 12.9787 15.7767 12.511 16.1438 12.1438C16.511 11.7767 16.9787 11.5267 17.4879 11.4254C17.9971 11.3242 18.5249 11.3761 19.0045 11.5748C19.4842 11.7735 19.8942 12.1099 20.1826 12.5416C20.471 12.9733 20.625 13.4808 20.625 14C20.625 14.6962 20.3484 15.3639 19.8562 15.8562C19.3639 16.3484 18.6962 16.625 18 16.625ZM30.25 6.125H5.75C5.51794 6.125 5.29538 6.21719 5.13128 6.38128C4.96719 6.54538 4.875 6.76794 4.875 7V21C4.875 21.2321 4.96719 21.4546 5.13128 21.6187C5.29538 21.7828 5.51794 21.875 5.75 21.875H30.25C30.4821 21.875 30.7046 21.7828 30.8687 21.6187C31.0328 21.4546 31.125 21.2321 31.125 21V7C31.125 6.76794 31.0328 6.54538 30.8687 6.38128C30.7046 6.21719 30.4821 6.125 30.25 6.125ZM25.1805 20.125H10.8195C10.5258 19.1314 9.98807 18.2272 9.25545 17.4945C8.52283 16.7619 7.61856 16.2242 6.625 15.9305V12.0695C7.61856 11.7758 8.52283 11.2381 9.25545 10.5055C9.98807 9.77283 10.5258 8.86856 10.8195 7.875H25.1805C25.4742 8.86856 26.0119 9.77283 26.7445 10.5055C27.4772 11.2381 28.3814 11.7758 29.375 12.0695V15.9305C28.3814 16.2242 27.4772 16.7619 26.7445 17.4945C26.0119 18.2272 25.4742 19.1314 25.1805 20.125ZM29.375 10.2123C28.3255 9.76105 27.4889 8.92452 27.0377 7.875H29.375V10.2123ZM8.96234 7.875C8.51105 8.92452 7.67452 9.76105 6.625 10.2123V7.875H8.96234ZM6.625 17.7877C7.67452 18.2389 8.51105 19.0755 8.96234 20.125H6.625V17.7877ZM27.0377 20.125C27.4889 19.0755 28.3255 18.2389 29.375 17.7877V20.125H27.0377Z" fill="#BAB3FF"/>
</g>
<defs>
<filter id="filter0_d_7187_77474" x="0" y="-3" width="36" height="36" filterUnits="userSpaceOnUse" color-interpolation-filters="sRGB">
<feFlood flood-opacity="0" result="BackgroundImageFix"/>
<feColorMatrix in="SourceAlpha" type="matrix" values="0 0 0 0 0 0 0 0 0 0 0 0 0 0 0 0 0 0 127 0" result="hardAlpha"/>
<feOffset dy="1"/>
<feGaussianBlur stdDeviation="2"/>
<feComposite in2="hardAlpha" operator="out"/>
<feColorMatrix type="matrix" values="0 0 0 0 0.73 0 0 0 0 0.7 0 0 0 0 1 0 0 0 0.24 0"/>
<feBlend mode="normal" in2="BackgroundImageFix" result="effect1_dropShadow_7187_77474"/>
<feBlend mode="normal" in="SourceGraphic" in2="effect1_dropShadow_7187_77474" result="shape"/>
</filter>
</defs>
</svg>
