<svg width="272" height="92" viewBox="0 0 272 92" fill="none" xmlns="http://www.w3.org/2000/svg">
<rect width="272" height="92" rx="10" fill="#0B0217" fill-opacity="0.2"/>
<rect width="272" height="92" rx="10" fill="url(#paint0_radial_7178_77332)" fill-opacity="0.48"/>
<rect x="0.5" y="0.5" width="271" height="91" rx="9.5" stroke="#BAB3FF" stroke-opacity="0.08"/>
<rect x="0.5" y="0.5" width="271" height="91" rx="9.5" stroke="url(#paint1_linear_7178_77332)" stroke-opacity="0.06"/>
<rect x="16" y="16" width="240" height="12" rx="6" fill="#BAB3FF" fill-opacity="0.06"/>
<rect x="16.5" y="16.5" width="239" height="11" rx="5.5" stroke="url(#paint2_linear_7178_77332)" stroke-opacity="0.1"/>
<rect x="16" y="40" width="222" height="12" rx="6" fill="#BAB3FF" fill-opacity="0.06"/>
<rect x="16.5" y="40.5" width="221" height="11" rx="5.5" stroke="url(#paint3_linear_7178_77332)" stroke-opacity="0.1"/>
<rect x="16" y="64" width="172" height="12" rx="6" fill="#BAB3FF" fill-opacity="0.06"/>
<rect x="16.5" y="64.5" width="171" height="11" rx="5.5" stroke="url(#paint4_linear_7178_77332)" stroke-opacity="0.1"/>
<defs>
<radialGradient id="paint0_radial_7178_77332" cx="0" cy="0" r="1" gradientUnits="userSpaceOnUse" gradientTransform="translate(136 82.0838) rotate(90) scale(90.4162 195.991)">
<stop stop-color="#887DFF"/>
<stop offset="1" stop-color="#887DFF" stop-opacity="0"/>
</radialGradient>
<linearGradient id="paint1_linear_7178_77332" x1="136" y1="0" x2="136" y2="92" gradientUnits="userSpaceOnUse">
<stop stop-color="white"/>
<stop offset="1" stop-color="white" stop-opacity="0"/>
</linearGradient>
<linearGradient id="paint2_linear_7178_77332" x1="256" y1="22" x2="16" y2="22" gradientUnits="userSpaceOnUse">
<stop stop-color="white"/>
<stop offset="1" stop-color="white" stop-opacity="0"/>
</linearGradient>
<linearGradient id="paint3_linear_7178_77332" x1="238" y1="46" x2="16" y2="46" gradientUnits="userSpaceOnUse">
<stop stop-color="white"/>
<stop offset="1" stop-color="white" stop-opacity="0"/>
</linearGradient>
<linearGradient id="paint4_linear_7178_77332" x1="188" y1="70" x2="16" y2="70" gradientUnits="userSpaceOnUse">
<stop stop-color="white"/>
<stop offset="1" stop-color="white" stop-opacity="0"/>
</linearGradient>
</defs>
</svg>
