<svg xmlns="http://www.w3.org/2000/svg" width="20" height="20" viewBox="0 0 20 20" fill="none">
  <g clip-path="url(#clip0)">
    <path opacity="0.2" d="M4.10894 12.441C3.98352 12.1393 3.78523 11.8744 3.58849 11.6463C3.45379 11.4901 3.29993 11.3295 3.15759 11.1809C2.78921 10.7908 2.63258 10.6083 2.524 10.4323C2.41743 10.2596 2.375 10.1212 2.375 10C2.375 9.87883 2.41743 9.74045 2.524 9.56771C2.63258 9.3917 2.78921 9.20923 2.98328 9.00227C3.03765 8.94428 3.09656 8.8828 3.15759 8.8191C3.29993 8.67052 3.45379 8.50992 3.58849 8.35371C3.78523 8.12558 3.98352 7.86068 4.10857 7.55991C4.23162 7.26252 4.27481 6.93773 4.29397 6.64218C4.30648 6.44919 4.30976 6.23659 4.31281 6.03878C4.31573 5.8492 4.31816 5.7637 4.3351 5.16665C4.40642 4.81007 4.60824 4.60824 4.81007 4.40642C5.16665 4.3351 5.7637 4.31816 6.03878 4.31281C6.44919 4.30648 6.64218 4.29397 6.93773 4.27481C7.26252 4.23162 7.55914 4.10888 7.86111 3.98388C8.12662 3.78557 8.3552 3.58863 8.82323 3.1552C9.21076 2.78892 9.39284 2.63237 9.56852 2.52384C9.87891 2.375 10.1212 2.375 10.4323 2.524C10.7908 2.78921 11.1172 3.09656 11.6463 3.58849C12.1393 3.98352 12.7377 4.23162 13.3582 4.29397C14.0581 4.3143 14.8335 4.3351 15.3918 4.60824C15.6649 5.16651 15.6857 5.94191 15.706 6.64184C15.7684 7.26226 16.2144 8.12662 16.8448 8.82322C17.2111 9.21076 17.3676 9.39284 17.4762 9.56852C17.625 9.87891 17.625 10.1212 17.476 10.4323C17.2108 10.7908 16.9034 11.1172 16.4115 11.6463C16.0165 12.1393 15.7684 12.7377 15.706 13.3582C15.6857 14.0581 15.6649 14.8335 15.3918 15.3918C15.1899 15.5936 14.8335 15.6649 14.2366 15.6818C13.7638 15.6902 13.3582 15.706 12.7377 15.8911C12.1393 16.0165 11.8744 16.2148 11.1809 16.8424C10.7908 17.2108 10.4323 17.476 10 17.625C9.56771 17.476 9.20923 17.2108 8.81909 16.8424C8.12558 16.2148 7.55991 15.8914 6.93773 15.706C6.23659 15.6902 5.7637 15.6818 4.97344 15.7453C4.25469 15.7453 3.53594 15.0266 4.25469 15.7453Z" fill="#9B96B0" stroke="#676182"/>
    <path d="M6.875 10.625L8.75 12.5L13.125 8.125" stroke="#9B96B0" stroke-linecap="round" stroke-linejoin="round"/>
  </g>
  <defs>
    <clipPath id="clip0">
      <rect width="20" height="20" fill="white"/>
    </clipPath>
  </defs>
</svg>
