<?xml version="1.0" encoding="UTF-8"?>
<svg xmlns="http://www.w3.org/2000/svg" version="1.1" xmlns:v="https://vecta.io/nano" xmlns:xlink="http://www.w3.org/1999/xlink" viewBox="0 0 49 52">
  <defs>
    <style>
      .cls-1 {
        fill: url(#linear-gradient-2);
      }

      .cls-2 {
        fill: url(#linear-gradient-4);
      }

      .cls-3 {
        fill: url(#linear-gradient-3);
      }

      .cls-4 {
        fill: url(#linear-gradient-5);
      }

      .cls-5 {
        fill: url(#linear-gradient-7);
      }

      .cls-6 {
        fill: url(#linear-gradient-6);
        stroke: #dcd4ff;
        stroke-linecap: round;
        stroke-linejoin: round;
        stroke-width: .8px;
      }

      .cls-7 {
        fill: #dcd4ff;
      }

      .cls-8 {
        fill: url(#linear-gradient);
      }
    </style>
    <linearGradient id="linear-gradient" x1="22.6" y1="18.7" x2="22.6" y2="-2.3" gradientUnits="userSpaceOnUse">
      <stop offset="0" stop-color="#fff"/>
      <stop offset="1" stop-color="#7549ff"/>
    </linearGradient>
    <linearGradient id="linear-gradient-2" x1="30.9" y1="55.6" x2="30.9" y2="9.7" xlink:href="#linear-gradient"/>
    <linearGradient id="linear-gradient-3" x1="22.6" y1="55.6" x2="22.6" y2="9.7" xlink:href="#linear-gradient"/>
    <linearGradient id="linear-gradient-4" x1="24.7" y1="54.2" x2="24.7" y2="10.5" xlink:href="#linear-gradient"/>
    <linearGradient id="linear-gradient-5" x1="18.8" y1="55" x2="18.8" y2="10.2" xlink:href="#linear-gradient"/>
    <linearGradient id="linear-gradient-6" x1="30" y1="55.6" x2="30" y2="9.7" xlink:href="#linear-gradient"/>
    <linearGradient id="linear-gradient-7" x1="32.9" y1="52.6" x2="32.9" y2="14" xlink:href="#linear-gradient"/>
  </defs>
  <!-- Generator: Adobe Illustrator 28.7.1, SVG Export Plug-In . SVG Version: 1.2.0 Build 142)  -->
  <g>
    <g id="Layer_1">
      <g>
        <g>
          <polygon class="cls-8" points="22.6 8.2 22.6 8.2 22.6 8.2 22.6 8.2"/>
          <path class="cls-7" d="M22.6,8.2h0,0ZM22.6,8.2h0,0s0,0,0,0h0Z"/>
        </g>
        <g>
          <path class="cls-1" d="M30.8,36.5s0,0,0,0c0,0,0,0,0,0,0,0,0,0,0,0h0Z"/>
          <path class="cls-7" d="M30.8,36.5h0s0,0,0,0c0,0,0,0,0,0,0,0,0,0,0,0h0Z"/>
        </g>
        <g>
          <path class="cls-3" d="M22.6,8.2s0,0,0,0c0,0,0,0,0,0h0s0,0,0,0Z"/>
          <path class="cls-7" d="M22.6,8.2s0,0,0,0c0,0,0,0,0,0,0,0,0,0,0,0h0Z"/>
        </g>
        <g>
          <path class="cls-2" d="M24.7,33.5c-.1,0-.3,0-.6-.3-.2-.2-1-.6-1.2-.7-.2-.1-.5-.2-.7-.4-.2-.1-.4-.2-.6-.3-.4-.3-.9-.5-1.4-.8-.6-.3-1.2-.6-1.7-1-.1,0-.3-.1-.4-.2,0,0-.1,0-.1,0,0,0,0,0,0,0v-1.3c0-1.8,0-3.7,0-5.5,0,0,0-.2,0-.2,0-.2,0-.3,0-.4,0,0,0,0,0,0,.5-.3.9-.5,1.4-.7,0,0,0,0,.1,0,.4-.3.8-.5,1.3-.7l1.1-.5.8-.4c.7-.4,1.4-.7,2-1.1,0,0,0,0,0,0l5.2,3s0,0,.1,0h.1s.2.1.2.1c.3.1.6.2.8.4,0,1,0,1.8,0,2.7,0,1.5,0,3,0,4.5,0,.2,0,.2,0,.2,0,0,0,0,0,0-.3.3-.7.5-1.1.7-.2,0-.4.2-.6.3-.5.3-1,.6-1.5.8-.5.3-1,.5-1.5.8-.4.2-.7.4-1.1.6-.3.2-.5.3-.6.3Z"/>
          <path class="cls-7" d="M24.8,19.2l2.3,1.3,2.8,1.6c0,0,.2,0,.3,0h0c0,0,.1,0,.2,0,.2,0,.4.2.5.2,0,.9,0,1.7,0,2.6,0,1.5,0,3,0,4.5,0,0,0,0,0,0,0,0,0,0,0,0-.3.3-.6.5-1,.7-.2.1-.4.2-.6.3-.5.3-1,.6-1.5.8-.5.3-1,.6-1.5.8-.4.2-.7.4-1.1.6-.3.2-.4.2-.4.2,0,0,0,0-.4-.2-.2-.2-1-.7-1.2-.7-.2-.1-.4-.2-.7-.4-.2-.1-.4-.2-.6-.3-.5-.3-.9-.5-1.4-.8-.6-.3-1.1-.6-1.6-.9-.1,0-.3-.1-.4-.2v-1c0-1.9,0-3.7,0-5.6,0,0,0-.2,0-.3,0,0,0-.1,0-.1.4-.2.8-.5,1.2-.6,0,0,.1,0,.2-.1.4-.3.8-.5,1.2-.7h.1c0,0,.5-.3.5-.3l.5-.2s0,0,0,0l.8-.4c.6-.3,1.2-.7,1.8-1M24.8,18.4c0,0-.1,0-.2,0-.9.5-1.8,1-2.8,1.5-.3.1-.6.3-1,.4-.5.2-1,.5-1.5.8-.6.2-1.1.5-1.6.8,0,0,0,0,0,0-.2.3,0,.5,0,.8,0,2.3,0,4.6,0,7,0,0,0,0,0,0s0,0,0,0c0,.3.4.2.6.4,1,.7,2.1,1.1,3.1,1.8.4.2.8.5,1.3.7.1,0,.9.5,1.1.7.3.2.5.3.8.3s.4-.1.8-.3c.9-.5,1.7-1,2.6-1.4.5-.3,1-.6,1.5-.8.6-.4,1.3-.6,1.8-1.1.2-.1.2-.3.2-.5.1-2.4,0-4.8,0-7.2,0-.1,0-.2-.1-.3-.3-.3-.7-.4-1.1-.6,0,0-.1,0-.2,0-1.8-1-3.5-2-5.3-3h0c0,0-.1,0-.2,0h0Z"/>
        </g>
        <g>
          <path class="cls-4" d="M25.1,44.7c-.2,0-.4,0-.6,0-.4,0-.7-.2-1-.4-.8-.4-1.6-.8-2.4-1.3-.7-.3-1.3-.7-1.9-1.1l-.4-.2-.7-.4c-.2,0-.4-.2-.5-.3-.6-.3-1.2-.6-1.6-1,0,0-.2,0-.3,0h0c-.5-.1-.9-.4-1.3-.7l-.4-.2c-.3,0-.4-.2-.6-.4,0,0-.1,0-.2,0,0,0,0,0-.1,0,0,0-.1-.1-.2-.1,0,0,0,0,0,0-.4-.1-.7-.3-1-.6-.3-.2-.5-.3-.8-.4-1-.5-1.9-1-2.6-1.7,0,0,0,0,0,0,0,0,0-.1,0-.2,0-6,0-12.1,0-18.1q0-1.3,1.3-2c.1,0,.3-.1.4-.2.2-.1.5-.3.7-.3,0,0,.2,0,.2-.1.2-.2.5-.4.9-.6.3-.1.5-.3.8-.4,0,0,0,0,0,0,.1,0,.2-.1.3-.2,0,0,.1,0,.2-.1,0,0,.1,0,.2,0,0,0,0,0,.1,0,.2-.2.3-.2.4-.2.1,0,.3.1.5.2.2.1.4.2.6.3.7.3,1.5.7,2.2,1.1.3.2.5.3.8.5.1,0,.3.1.4.2.2,0,.4.2.6.3-.2.1-.5.3-.7.4-1,.6-2.1,1.2-3.2,1.7h-.1c0,0-.1,0-.2,0h0c-.2.2-.3.3-.5.3,0,0-.1,0-.2,0,0,0-.2.1-.2.3-.3.3-.3.6-.3.8v1.1c0,.6,0,1.1,0,1.7,0,1.2,0,2.3,0,3.5,0,1.3,0,2.7,0,4,0,.6,0,1.1,0,1.7,0,.6,0,1.1,0,1.7,0,0,0,.2,0,.3,0,.1.2.2.3.3.5.2,13.2,7.5,15.5,9-.3.2-.6.4-1,.6l-.5.3c-.4.2-.7.4-1.1.6-.4.2-.9.4-1.3.7,0,0-.2,0-.3,0h0Z"/>
          <path class="cls-7" d="M13.9,13.4h0,0M13.9,13.4c0,0,.2.1.3.2.2.1.4.2.6.3.7.3,1.4.7,2.2,1.1.3.2.6.3.8.5.1,0,.3.1.4.2,0,0,0,0-.1,0-1,.6-2,1.2-3.1,1.6h0c-.1,0-.2,0-.3.1h0c-.2.2-.3.3-.3.3-.1,0-.3,0-.4.1h0s0,.1,0,.1c-.1,0-.2.2-.3.4-.2.3-.2.7-.2.9,0,.3,0,.7,0,1,0,.6,0,1.1,0,1.7,0,1.1,0,2.3,0,3.4,0,1.3,0,2.7,0,4.1,0,.5,0,1.1,0,1.6,0,.5,0,1.1,0,1.6,0,0,0,.2,0,.3,0,.2,0,.4.2.6,0,0,.2.1.3.2,1.1.5,11.9,6.7,15,8.7-.2,0-.3.2-.5.3-.2,0-.3.2-.5.3-.3.2-.7.4-1.1.6-.4.2-.9.4-1.3.7,0,0,0,0,0,0-.1,0-.3,0-.5,0-.3,0-.7-.2-.9-.4,0,0,0,0-.1,0-.7-.3-1.5-.7-2.2-1.2,0,0,0,0-.1,0-.6-.3-1.2-.6-1.8-1l-.4-.2-.3-.2-.4-.2c-.2,0-.4-.2-.5-.3-.6-.3-1.1-.6-1.5-1-.1,0-.2-.2-.4-.2,0,0,0,0,0,0-.4-.1-.8-.4-1.2-.6-.1,0-.3-.2-.4-.2,0,0,0,0-.1,0-.1,0-.3-.1-.4-.3,0,0-.2-.1-.3-.2,0-.1-.2-.2-.4-.2,0,0,0,0,0,0-.3,0-.6-.3-.9-.5,0,0,0,0,0,0-.2-.1-.5-.3-.7-.4-.9-.5-1.7-.9-2.4-1.5,0,0,0,0,0,0,0-6,0-12.1,0-18.1,0-.5,0-1,0-1.1,0-.1.5-.3,1-.6.1,0,.3-.1.4-.2.2-.1.4-.2.6-.3.2,0,.3-.1.4-.2.2-.2.4-.3.8-.5.2-.1.5-.2.7-.4,0,0,0,0,0,0,.2,0,.4-.2.5-.3,0,0,0,0,0,0,0,0,.1,0,.2,0,0,0,.1,0,.2-.1,0,0,0,0,0,0M13.4,13.7h0,0M13.9,12.7c-.2,0-.4,0-.6.3-.2.1-.5.2-.6.4,0,0,0,0,0,0,0,0,0,0,0,0,0,0,0,0-.1,0-.5.4-1.2.6-1.7,1.1-.5,0-.8.4-1.2.6-1.5.7-1.5.7-1.5,2.3,0,6,0,12.1,0,18.1,0,.1,0,.3,0,.4.9,1,2.2,1.5,3.4,2.2.3.2.7.5,1.1.6,0,0,0,0,0,0s0,0,0,0c0,.1.2.2.4.2.2.2.4.3.7.4.6.3,1.1.7,1.8.9,0,0,0,0,0,0s0,0,0,0c.6.6,1.5.9,2.2,1.3.2.1.5.3.7.4.8.4,1.5.9,2.3,1.3h0c.7.5,1.5.9,2.4,1.3.4.2.8.4,1.2.5.2,0,.4,0,.7,0s.3,0,.5-.1c.8-.5,1.6-.8,2.4-1.3.6-.4,1.3-.7,1.9-1.2.2-.2-15.6-9.3-16.1-9.4,0,0,0,0,0,0,0,0,0,0,0-.1,0-1.1,0-2.3,0-3.4,0-2.5,0-5,0-7.5,0-.9,0-1.8,0-2.7,0-.2,0-.5.2-.6,0,0,0,0,0,0,0,0,0,0,.1-.1.3,0,.6-.2.8-.4h.2c1.5-.6,2.8-1.5,4.2-2.2.3-.2.2-.4-.1-.5-.3-.2-.7-.4-1.1-.6-1-.6-2-1.2-3.1-1.6-.4-.1-.8-.5-1.2-.5h0Z"/>
        </g>
        <path class="cls-6" d="M39.5,14.9h0c-2.4-1.2-4.7-2.5-7-3.8-1.5-.8-3-1.7-4.5-2.5-.2-.2-.5-.3-.8-.4,0-.1-.2-.2-.3-.2-.7-.4-1.3-.9-2.1-1.1-.2,0-.3,0-.5,0-.3.2-.6.4-1,.6-1.3.7-2.7,1.5-4,2.2-.4.2,0,.2,0,.3,1,.7,2.1,1.2,3.2,1.8.3.1.6.4,1,.5h0c0,0,0,0,.1,0,.4.4,1,.5,1.4.9.8.4,1.6.9,2.5,1.3,0,0,0,0,.1,0,.1,0,.3.2.4.3,1,.5,2,1.1,3,1.7,0,0,0,0,.1,0,0,0,0,0,0,0,0,0,0,0,0,0,.2.3.4.4.7.4h0c0,.2.2.1.3.2.1,0,.2.1.4.2.4.2.7.5,1.2.6.2,0,.3.2.5.2.1.1.3.2.5.2h0c0,.2.3.3.5.5.6.3,1.2.7,1.8,1,.7.3,1.3.8,2,1,.7.2,1.2.8,2,.9,0-1.5,0-3,0-4.5,0-1.2-.3-1.8-1.4-2.4Z"/>
        <g>
          <path class="cls-5" d="M34.7,38.7c-.7-.3-1.3-.6-1.9-.9l-.9-.4c-.3-.1-.6-.3-.8-.5,0,0,0,0,0,0,0,0,.2-.2.2-.4,0,0,0-.2,0-.2,0,0,0,0,0,0,1-.6,1.9-1.1,2.8-1.5,0,0,.1,0,.2-.1,0,0,0,0,0,0,.1,0,.2,0,.3-.1,0,0,.2-.1.2-.2,0,0,0,0,0,0h0c0,.5,0,.9,0,1.4,0,1,0,2,0,2.9,0,0,0,0,0,.1,0,0,0,0,0,0ZM34.5,34.4s0,0,0,0h0s0,0,0,0Z"/>
          <path class="cls-7" d="M35,34.5h0,0M34.4,34.9c0,.2,0,.5,0,.7,0,.8,0,1.7,0,2.5-.5-.2-1-.4-1.4-.7,0,0,0,0,0,0l-.4-.2-.5-.2c-.1,0-.3-.1-.4-.2,0,0,0-.2,0-.3,0,0,0,0,0,0,.8-.5,1.7-1,2.5-1.3,0,0,.2,0,.2-.1,0,0,0,0,0,0M34.9,33.8c-.3,0-.4.2-.6.3h0s0,0,0,0c0,0,0,0,0,0-.1,0-.2,0-.3.2h0c-1,.4-2,1-2.9,1.6,0,0,0,0,0,0,0,0,0,0,0,0-.3,0-.5.2-.7.4-.4.2-.4.3,0,.5h0c.1.1.3.1.4.2h0c.3.2.7.4,1,.6.3.1.6.3.9.4.6.4,1.3.7,2,1,0,0,.1,0,.2,0,.2,0,.2-.1.3-.5.1-1.4,0-2.9,0-4.3,0-.2,0-.3,0-.5h0c0,0-.1,0-.2,0h0ZM30.8,36.6s0,0,0,0h0s0,0,0,0c0,0,0,0,0,0h0Z"/>
        </g>
      </g>
    </g>
  </g>
</svg>