<svg xmlns="http://www.w3.org/2000/svg" xmlns:xlink="http://www.w3.org/1999/xlink" width="306" height="306" fill="none" xmlns:v="https://vecta.io/nano"><style><![CDATA[.B{stroke-dasharray:2 2}.C{stroke:#8566ff}.D{stroke-opacity:.08}.E{stroke-opacity:.24}.F{stroke-opacity:.4}.G{color-interpolation-filters:sRGB}.H{flood-opacity:0}]]></style><g filter="url(#A)" class="B"><use xlink:href="#P" class="C D"/><use xlink:href="#Q" stroke="url(#F)" class="E"/><use xlink:href="#Q" stroke="url(#G)" class="F"/></g><g filter="url(#B)" class="B"><use xlink:href="#R" class="C D"/><use xlink:href="#S" stroke="url(#H)" class="E"/><use xlink:href="#S" stroke="url(#I)" class="F"/></g><g filter="url(#C)" class="B"><path d="M17.078 199.017A143.5 143.5 0 0 1 36.39 69.367 143.5 143.5 0 0 1 153 9.5" class="C D"/><use xlink:href="#T" stroke="url(#J)" class="E"/><use xlink:href="#T" stroke="url(#K)" class="F"/></g><g filter="url(#D)" class="B"><use xlink:href="#U" class="C D"/><use xlink:href="#V" stroke="url(#L)" class="E"/><use xlink:href="#V" stroke="url(#M)" class="F"/></g><g filter="url(#E)" class="B"><use xlink:href="#W" class="C D"/><use xlink:href="#X" stroke="url(#N)" class="E"/><use xlink:href="#X" stroke="url(#O)" class="F"/></g><g class="B"><use xlink:href="#P" class="C D"/><use xlink:href="#Q" stroke="url(#F)" class="E"/><use xlink:href="#Q" stroke="url(#G)" class="F"/><use xlink:href="#R" class="C D"/><use xlink:href="#S" stroke="url(#H)" class="E"/><use xlink:href="#S" stroke="url(#I)" class="F"/><path d="M17.078 199.017A143.5 143.5 0 0 1 36.39 69.367 143.5 143.5 0 0 1 153 9.5" class="C D"/><use xlink:href="#T" stroke="url(#J)" class="E"/><use xlink:href="#T" stroke="url(#K)" class="F"/><use xlink:href="#U" class="C D"/><use xlink:href="#V" stroke="url(#L)" class="E"/><use xlink:href="#V" stroke="url(#M)" class="F"/><use xlink:href="#W" class="C D"/><use xlink:href="#X" stroke="url(#N)" class="E"/><use xlink:href="#X" stroke="url(#O)" class="F"/></g><defs><filter id="A" x="79.023" y="48.505" width="178.113" height="104.289" filterUnits="userSpaceOnUse" class="G"><feFlood class="H"/><feBlend in="SourceGraphic"/><feGaussianBlur stdDeviation="4"/></filter><filter id="B" x="48.5" y="124.128" width="198.45" height="133.372" filterUnits="userSpaceOnUse" class="G"><feFlood class="H"/><feBlend in="SourceGraphic"/><feGaussianBlur stdDeviation="4"/></filter><filter id="C" x=".5" y=".5" width="160.5" height="206.837" filterUnits="userSpaceOnUse" class="G"><feFlood class="H"/><feBlend in="SourceGraphic"/><feGaussianBlur stdDeviation="4"/></filter><filter id="D" x="195.234" y="9.776" width="110.266" height="256.86" filterUnits="userSpaceOnUse" class="G"><feFlood class="H"/><feBlend in="SourceGraphic"/><feGaussianBlur stdDeviation="4"/></filter><filter id="E" x="36.16" y="238.733" width="175.944" height="66.767" filterUnits="userSpaceOnUse" class="G"><feFlood class="H"/><feBlend in="SourceGraphic"/><feGaussianBlur stdDeviation="4"/></filter><linearGradient id="F" x1="244.636" y1="167.727" x2="66.273" y2="105" xlink:href="#Y"><stop stop-color="#bab3ff"/><stop offset="1" stop-color="#bab3ff" stop-opacity="0"/></linearGradient><linearGradient id="G" x1="249" y1="142.636" x2="183.545" y2="63" xlink:href="#Y"><stop stop-color="#bab3ff"/><stop offset="1" stop-color="#bab3ff" stop-opacity="0"/></linearGradient><linearGradient id="H" x1="70.091" y1="104.455" x2="249" y2="172.636" xlink:href="#Y"><stop stop-color="#bab3ff"/><stop offset="1" stop-color="#bab3ff" stop-opacity="0"/></linearGradient><linearGradient id="I" x1="59.727" y1="131.727" x2="94.091" y2="228.818" xlink:href="#Y"><stop stop-color="#bab3ff"/><stop offset="1" stop-color="#bab3ff" stop-opacity="0"/></linearGradient><linearGradient id="J" x1="26.438" y1="225.562" x2="178.875" y2="9" xlink:href="#Y"><stop stop-color="#bab3ff"/><stop offset="1" stop-color="#bab3ff" stop-opacity="0"/></linearGradient><linearGradient id="K" x1="18" y1="199.125" x2="39.375" y2="64.125" xlink:href="#Y"><stop stop-color="#bab3ff"/><stop offset="1" stop-color="#bab3ff" stop-opacity="0"/></linearGradient><linearGradient id="L" x1="177.75" y1="9" x2="225" y2="275.625" xlink:href="#Y"><stop stop-color="#bab3ff"/><stop offset="1" stop-color="#bab3ff" stop-opacity="0"/></linearGradient><linearGradient id="M" x1="204.188" y1="19.125" x2="276.75" y2="79.313" xlink:href="#Y"><stop stop-color="#bab3ff"/><stop offset="1" stop-color="#bab3ff" stop-opacity="0"/></linearGradient><linearGradient id="N" x1="229.5" y1="276.75" x2="23.625" y2="223.312" xlink:href="#Y"><stop stop-color="#bab3ff"/><stop offset="1" stop-color="#bab3ff" stop-opacity="0"/></linearGradient><linearGradient id="O" x1="203.625" y1="288" x2="74.813" y2="273.375" xlink:href="#Y"><stop stop-color="#bab3ff"/><stop offset="1" stop-color="#bab3ff" stop-opacity="0"/></linearGradient><path id="P" d="M87.707 83.308a95.5 95.5 0 0 1 99.428-19.499 95.5 95.5 0 0 1 42.115 31.692 95.49 95.49 0 0 1 18.889 49.207"/><path id="Q" d="M87.7066 83.3076C100.782 71.0577 117.039 62.7331 134.622 59.2851C152.204 55.8371 170.401 57.4047 187.135 63.8088C203.868 70.213 218.463 81.1953 229.25 95.5009C240.038 109.806 246.584 126.858 248.139 144.708"/><path id="R" d="M238.06 196.418a95.5 95.5 0 0 1-49.91 45.378c-21.603 8.551-45.582 8.934-67.447 1.077a95.5 95.5 0 0 1-60.942-110.529"/><path id="S" d="M238.06 196.418C227.497 217.112 209.752 233.245 188.15 241.796C166.547 250.347 142.568 250.73 120.703 242.873C98.8384 235.016 80.5879 219.457 69.3698 199.111C58.1517 178.765 54.7354 155.028 59.7606 132.344"/><path id="T" d="M17.0783 199.017C9.76862 177.426 7.70761 154.404 11.066 131.858C14.4243 109.312 23.1054 87.8906 36.3903 69.3673C49.6752 50.8441 67.1817 35.7521 87.4601 25.3412C107.738 14.9303 130.205 9.5 153 9.5"/><path id="U" d="M203.587 18.712a143.5 143.5 0 0 1 58.896 41.521c15.781 18.624 26.55 40.967 31.288 64.914a143.51 143.51 0 0 1-4.21 71.938c-7.5 23.23-20.801 44.164-38.647 60.82"/><path id="V" d="M203.587 18.7123C226.431 27.3179 246.702 41.6088 262.483 60.2333C278.264 78.8578 289.033 101.2 293.771 125.147C298.509 149.094 297.06 173.854 289.561 197.085C282.061 220.315 268.76 241.249 250.914 257.905"/><path id="W" d="M203.751 287.226c-27.378 10.352-57.268 12.084-85.659 4.963s-53.925-22.752-73.178-44.798"/><path id="X" d="M203.751 287.226C176.373 297.578 146.483 299.31 118.092 292.189C89.7015 285.069 64.1669 269.437 44.9137 247.391"/><linearGradient id="Y" gradientUnits="userSpaceOnUse"/></defs></svg>